<svg xmlns="http://www.w3.org/2000/svg" width="206" height="26" viewBox="0 0 206 26">
    <g fill="none" fill-rule="evenodd">
        <g fill="#FFF">
            <g>
                <g>
                    <g opacity=".6">
                        <path d="M19.008 0l-6.341 12.667h12.666L19.008 0zm0 3.514l3.79 7.59H15.22l3.788-7.59zM44.869 11.665c-2.238-.38-3.928-2.312-3.928-4.657 0-2.328 1.69-4.276 3.928-4.656v9.313zm1.624 0V2.37c1.425.247 2.686 1.139 3.381 2.46l1.46-.744c-.548-1.007-1.343-1.865-2.321-2.46-.995-.628-2.155-.958-3.332-.958-1.707 0-3.298.66-4.492 1.866-1.21 1.19-1.856 2.791-1.856 4.475 0 1.701.646 3.287 1.856 4.476 1.194 1.205 2.785 1.85 4.492 1.85 1.177 0 2.337-.315 3.332-.942.978-.595 1.773-1.454 2.32-2.46l-1.459-.744c-.695 1.321-1.956 2.23-3.38 2.477zM1.645 8.543h8.026V5.491H1.645v3.052zM9.671.667V3.82H1.645V.667H0v12.666h1.645v-3.137h8.026v3.137h1.662V.667H9.671zM76.344 11.111h-7.683l7.683-7.354v7.354zm-9.356-7.354l3.53 3.402-3.53 3.385V3.757zm4.678 2.3L65.333 0v12.667H78V0l-6.334 6.058zM36.348 9.576l-3.37-3.11v-4.42h3.37v7.53zm-5.023 1.713h-3.674V3.757l3.674 3.409v4.123zm0-10.874v4.522L26 0v12.902h6.977V8.695L38 13.333V.415h-6.675zM58.333 11.71c-2.602 0-4.71-2.109-4.71-4.71 0-2.602 2.108-4.711 4.71-4.711s4.71 2.109 4.71 4.71c0 2.602-2.108 4.711-4.71 4.711m0-11.043C54.835.667 52 3.502 52 6.999c0 3.499 2.835 6.334 6.333 6.334S64.667 10.498 64.667 7c0-3.497-2.836-6.332-6.334-6.332" transform="translate(-340 -19) translate(340 19) translate(0 2) translate(0 3.76)"/>
                    </g>
                    <path fill-rule="nonzero" d="M94.376 17.76c1.312 0 2.476-.216 3.492-.648 1.016-.432 1.868-1.032 2.556-1.8s1.208-1.672 1.56-2.712c.352-1.04.528-2.16.528-3.36 0-1.216-.168-2.344-.504-3.384-.336-1.04-.84-1.944-1.512-2.712-.672-.768-1.516-1.368-2.532-1.8C96.948.912 95.76.696 94.4.696h-4.536c-.768 0-1.324.184-1.668.552-.344.368-.516.912-.516 1.632v12.672c0 .736.172 1.288.516 1.656.344.368.9.552 1.668.552h4.512zm0-1.68h-4.632V2.376h4.608c.992 0 1.868.168 2.628.504.76.336 1.396.808 1.908 1.416.512.608.9 1.332 1.164 2.172.264.84.396 1.764.396 2.772 0 1.008-.128 1.928-.384 2.76-.256.832-.64 1.552-1.152 2.16-.512.608-1.148 1.08-1.908 1.416-.76.336-1.636.504-2.628.504zM110.58 18c1.104 0 2.008-.128 2.712-.384.704-.256 1.312-.584 1.824-.984.224-.176.344-.372.36-.588.016-.216-.036-.4-.156-.552-.12-.152-.28-.256-.48-.312-.2-.056-.404-.004-.612.156-.224.16-.452.308-.684.444-.232.136-.492.256-.78.36-.288.104-.608.184-.96.24-.352.056-.76.084-1.224.084-.608 0-1.172-.096-1.692-.288-.52-.192-.976-.464-1.368-.816-.392-.352-.708-.768-.948-1.248s-.376-1-.408-1.56h8.784c.4 0 .684-.104.852-.312.168-.208.252-.496.252-.864 0-.848-.152-1.624-.456-2.328-.304-.704-.72-1.304-1.248-1.8s-1.148-.88-1.86-1.152c-.712-.272-1.468-.408-2.268-.408-.816 0-1.58.156-2.292.468-.712.312-1.34.744-1.884 1.296-.544.552-.972 1.204-1.284 1.956-.312.752-.468 1.568-.468 2.448 0 .88.144 1.692.432 2.436.288.744.704 1.392 1.248 1.944s1.204.984 1.98 1.296c.776.312 1.652.468 2.628.468zm3.768-6.888h-8.208c.048-.528.184-1.028.408-1.5.224-.472.516-.884.876-1.236s.776-.632 1.248-.84c.472-.208.988-.312 1.548-.312.64 0 1.216.104 1.728.312.512.208.944.488 1.296.84.352.352.624.764.816 1.236.192.472.288.972.288 1.5zM122.632 18c.72 0 1.34-.184 1.86-.552.52-.368.916-.992 1.188-1.872l2.424-8.472c.096-.304.072-.556-.072-.756-.144-.2-.328-.328-.552-.384-.224-.056-.448-.028-.672.084-.224.112-.384.32-.48.624L124 15.408c-.096.352-.268.616-.516.792-.248.176-.532.264-.852.264-.32 0-.604-.088-.852-.264-.248-.176-.42-.44-.516-.792l-2.328-8.736c-.096-.304-.256-.512-.48-.624-.224-.112-.448-.14-.672-.084-.224.056-.408.184-.552.384-.144.2-.168.452-.072.756l2.424 8.472c.272.88.668 1.504 1.188 1.872.52.368 1.14.552 1.86.552zm12.988 0c1.104 0 2.008-.128 2.712-.384.704-.256 1.312-.584 1.824-.984.224-.176.344-.372.36-.588.016-.216-.036-.4-.156-.552-.12-.152-.28-.256-.48-.312-.2-.056-.404-.004-.612.156-.224.16-.452.308-.684.444-.232.136-.492.256-.78.36-.288.104-.608.184-.96.24-.352.056-.76.084-1.224.084-.608 0-1.172-.096-1.692-.288-.52-.192-.976-.464-1.368-.816-.392-.352-.708-.768-.948-1.248s-.376-1-.408-1.56h8.784c.4 0 .684-.104.852-.312.168-.208.252-.496.252-.864 0-.848-.152-1.624-.456-2.328-.304-.704-.72-1.304-1.248-1.8s-1.148-.88-1.86-1.152c-.712-.272-1.468-.408-2.268-.408-.816 0-1.58.156-2.292.468-.712.312-1.34.744-1.884 1.296-.544.552-.972 1.204-1.284 1.956-.312.752-.468 1.568-.468 2.448 0 .88.144 1.692.432 2.436.288.744.704 1.392 1.248 1.944s1.204.984 1.98 1.296c.776.312 1.652.468 2.628.468zm3.768-6.888h-8.208c.048-.528.184-1.028.408-1.5.224-.472.516-.884.876-1.236s.776-.632 1.248-.84c.472-.208.988-.312 1.548-.312.64 0 1.216.104 1.728.312.512.208.944.488 1.296.84.352.352.624.764.816 1.236.192.472.288.972.288 1.5zm5.788 6.552c.288.128.54.144.756.048.216-.096.376-.24.48-.432.104-.192.136-.396.096-.612-.04-.216-.18-.38-.42-.492-.352-.176-.624-.436-.816-.78-.192-.344-.288-.884-.288-1.62V.984c0-.272-.084-.504-.252-.696-.168-.192-.404-.288-.708-.288-.304 0-.532.096-.684.288-.152.192-.228.424-.228.696v13.2c0 .512.064.96.192 1.344.128.384.288.716.48.996s.412.512.66.696c.248.184.492.332.732.444zm8.26.336c.928 0 1.776-.164 2.544-.492.768-.328 1.424-.776 1.968-1.344.544-.568.964-1.22 1.26-1.956.296-.736.444-1.512.444-2.328 0-.816-.148-1.596-.444-2.34-.296-.744-.716-1.4-1.26-1.968-.544-.568-1.2-1.024-1.968-1.368-.768-.344-1.616-.516-2.544-.516-.944 0-1.796.172-2.556.516-.76.344-1.412.8-1.956 1.368-.544.568-.964 1.224-1.26 1.968-.296.744-.444 1.524-.444 2.34 0 .816.148 1.592.444 2.328.296.736.716 1.388 1.26 1.956.544.568 1.196 1.016 1.956 1.344.76.328 1.612.492 2.556.492zm0-1.536c-.656 0-1.252-.116-1.788-.348-.536-.232-.996-.556-1.38-.972-.384-.416-.684-.9-.9-1.452-.216-.552-.324-1.156-.324-1.812 0-.64.108-1.244.324-1.812.216-.568.516-1.064.9-1.488.384-.424.844-.756 1.38-.996.536-.24 1.132-.36 1.788-.36.64 0 1.232.12 1.776.36s1.008.572 1.392.996c.384.424.684.92.9 1.488.216.568.324 1.172.324 1.812 0 .656-.108 1.26-.324 1.812-.216.552-.516 1.036-.9 1.452-.384.416-.848.74-1.392.972-.544.232-1.136.348-1.776.348zm9.292 7.08c.304 0 .528-.08.672-.24.144-.16.216-.376.216-.648V15.48c.384.8 1.004 1.424 1.86 1.872.856.448 1.812.672 2.868.672.88 0 1.68-.168 2.4-.504.72-.336 1.34-.788 1.86-1.356.52-.568.924-1.224 1.212-1.968.288-.744.432-1.524.432-2.34 0-.816-.144-1.596-.432-2.34-.288-.744-.692-1.396-1.212-1.956s-1.14-1.008-1.86-1.344c-.72-.336-1.52-.504-2.4-.504-1.056 0-2.012.224-2.868.672-.856.448-1.476 1.072-1.86 1.872V6.84c0-.272-.072-.488-.216-.648-.144-.16-.368-.24-.672-.24-.304 0-.536.08-.696.24-.16.16-.24.376-.24.648v15.816c0 .272.08.488.24.648.16.16.392.24.696.24zm5.304-7.056c-.624 0-1.208-.112-1.752-.336-.544-.224-1.012-.536-1.404-.936-.392-.4-.704-.884-.936-1.452-.232-.568-.348-1.204-.348-1.908 0-.688.116-1.316.348-1.884.232-.568.544-1.056.936-1.464.392-.408.86-.72 1.404-.936.544-.216 1.128-.324 1.752-.324.672 0 1.28.12 1.824.36s1.008.564 1.392.972c.384.408.676.896.876 1.464.2.568.3 1.172.3 1.812 0 .656-.1 1.264-.3 1.824-.2.56-.492 1.048-.876 1.464-.384.416-.848.744-1.392.984-.544.24-1.152.36-1.824.36zM182.196 18c1.104 0 2.008-.128 2.712-.384.704-.256 1.312-.584 1.824-.984.224-.176.344-.372.36-.588.016-.216-.036-.4-.156-.552-.12-.152-.28-.256-.48-.312-.2-.056-.404-.004-.612.156-.224.16-.452.308-.684.444-.232.136-.492.256-.78.36-.288.104-.608.184-.96.24-.352.056-.76.084-1.224.084-.608 0-1.172-.096-1.692-.288-.52-.192-.976-.464-1.368-.816-.392-.352-.708-.768-.948-1.248s-.376-1-.408-1.56h8.784c.4 0 .684-.104.852-.312.168-.208.252-.496.252-.864 0-.848-.152-1.624-.456-2.328-.304-.704-.72-1.304-1.248-1.8s-1.148-.88-1.86-1.152c-.712-.272-1.468-.408-2.268-.408-.816 0-1.58.156-2.292.468-.712.312-1.34.744-1.884 1.296-.544.552-.972 1.204-1.284 1.956-.312.752-.468 1.568-.468 2.448 0 .88.144 1.692.432 2.436.288.744.704 1.392 1.248 1.944s1.204.984 1.98 1.296c.776.312 1.652.468 2.628.468zm3.768-6.888h-8.208c.048-.528.184-1.028.408-1.5.224-.472.516-.884.876-1.236s.776-.632 1.248-.84c.472-.208.988-.312 1.548-.312.64 0 1.216.104 1.728.312.512.208.944.488 1.296.84.352.352.624.764.816 1.236.192.472.288.972.288 1.5zm4.636 6.648c.304 0 .532-.08.684-.24.152-.16.228-.376.228-.648V10.8c0-.432.112-.86.336-1.284.224-.424.54-.808.948-1.152.408-.344.904-.62 1.488-.828.584-.208 1.228-.312 1.932-.312h.216c.256 0 .444-.08.564-.24.12-.16.18-.344.18-.552 0-.192-.06-.364-.18-.516-.12-.152-.308-.228-.564-.228h-.216c-.48 0-.96.052-1.44.156-.48.104-.932.256-1.356.456-.424.2-.804.436-1.14.708-.336.272-.592.576-.768.912V6.888c0-.272-.076-.5-.228-.684-.152-.184-.38-.276-.684-.276-.304 0-.532.092-.684.276-.152.184-.228.412-.228.684v9.984c0 .272.076.488.228.648.152.16.38.24.684.24zm11.236.24c1.408 0 2.5-.316 3.276-.948.776-.632 1.164-1.492 1.164-2.58 0-.736-.28-1.388-.84-1.956-.56-.568-1.376-1.02-2.448-1.356-1.104-.352-1.884-.688-2.34-1.008-.456-.32-.684-.728-.684-1.224 0-.544.196-.964.588-1.26.392-.296.932-.444 1.62-.444.528 0 .976.06 1.344.18.368.12.72.292 1.056.516l.103.064c.169.092.326.115.473.068.176-.056.308-.16.396-.312.088-.152.12-.332.096-.54-.024-.208-.132-.384-.324-.528-.352-.272-.812-.504-1.38-.696-.568-.192-1.204-.288-1.908-.288-.624 0-1.18.092-1.668.276-.488.184-.896.428-1.224.732-.328.304-.576.656-.744 1.056-.168.4-.252.816-.252 1.248 0 .816.32 1.492.96 2.028.64.536 1.552.98 2.736 1.332.928.272 1.596.584 2.004.936.408.352.612.784.612 1.296 0 .48-.196.912-.588 1.296-.392.384-1.036.576-1.932.576-.416 0-.888-.068-1.416-.204-.528-.136-1-.412-1.416-.828-.208-.208-.416-.304-.624-.288-.208.016-.38.1-.516.252s-.204.344-.204.576c0 .232.112.468.336.708.368.4.892.72 1.572.96s1.404.36 2.172.36z" transform="translate(-340 -19) translate(340 19) translate(0 2)"/>
                </g>
            </g>
        </g>
    </g>
</svg>
