<svg xmlns="http://www.w3.org/2000/svg" width="24" height="24" viewBox="0 0 24 24">
    <g fill="none" fill-rule="evenodd">
        <g>
            <g>
                <path d="M0 0H24V24H0z" transform="translate(-280.000000, -16.000000) translate(280.000000, 16.000000)"/>
                <path fill="#FFF" d="M4.727 4.727c.402-.401 1.053-.401 1.455 0L12 10.546l5.818-5.819c.402-.401 1.053-.401 1.455 0 .401.402.401 1.053 0 1.455L13.454 12l5.819 5.818c.37.37.399.954.085 1.358l-.085.097c-.402.401-1.053.401-1.455 0L12 13.454l-5.818 5.819c-.402.401-1.053.401-1.455 0-.401-.402-.401-1.053 0-1.455L10.546 12 4.727 6.182c-.37-.37-.399-.954-.085-1.358z" opacity=".6" transform="translate(-280.000000, -16.000000) translate(280.000000, 16.000000)"/>
            </g>
        </g>
    </g>
</svg>
