<svg xmlns="http://www.w3.org/2000/svg" width="24" height="24" viewBox="0 0 24 24">
    <g fill="none" fill-rule="evenodd">
        <g>
            <g>
                <path d="M0 0H24V24H0z" transform="translate(-1540.000000, -21.000000) translate(1540.000000, 21.000000)"/>
                <path fill="#FFF" fill-rule="nonzero" d="M10.5 3c4.142 0 7.5 3.358 7.5 7.5 0 1.71-.573 3.287-1.537 4.55l4.608 4.607c.39.39.39 1.024 0 1.414-.39.39-1.024.39-1.414 0l-4.608-4.608C13.787 17.427 12.211 18 10.5 18 6.358 18 3 14.642 3 10.5 3 6.358 6.358 3 10.5 3zm0 2C7.462 5 5 7.462 5 10.5S7.462 16 10.5 16s5.5-2.462 5.5-5.5S13.538 5 10.5 5z" opacity=".903" transform="translate(-1540.000000, -21.000000) translate(1540.000000, 21.000000)"/>
            </g>
        </g>
    </g>
</svg>
