<svg xmlns="http://www.w3.org/2000/svg" width="455" height="381" viewBox="0 0 455 381">
    <g fill="none" fill-rule="evenodd" opacity=".6">
        <g fill="#F2F4F4" fill-rule="nonzero">
            <g>
                <path d="M104.957 381c31.537 0 56.175-9.142 73.914-27.426 17.74-18.284 26.609-40.274 26.609-65.97 0-23.72-8.623-43.734-25.87-60.042-17.246-16.307-37.203-24.46-59.87-24.46-10.84 0-17.493-1.977-19.957-5.93-2.463-3.954-1.724-12.849 2.218-26.686 5.913-25.696 18.725-48.428 38.435-68.194 19.71-19.767 43.855-35.58 72.435-47.44L186.262 0c-25.623 9.883-49.768 23.226-72.435 40.027C91.16 56.83 71.45 76.348 54.697 98.586c-16.755 22.237-30.06 46.945-39.914 74.124C4.928 199.89 0 228.304 0 257.953c0 34.592 9.609 63.747 28.826 87.467C48.044 369.14 73.421 381 104.957 381zm240.65 0c31.537 0 56.422-9.142 74.654-27.426s27.348-40.274 27.348-65.97c0-23.72-8.624-43.734-25.87-60.042-17.247-16.307-37.203-24.46-59.87-24.46-11.826 0-18.971-1.977-21.435-5.93-2.464-3.954-1.725-12.849 2.217-26.686 6.899-25.696 20.203-48.428 39.914-68.194 19.71-19.767 43.855-35.58 72.435-47.44L428.391 0c-25.623 9.883-49.768 23.226-72.435 40.027-22.667 16.802-42.378 36.321-59.131 58.559-16.754 22.237-30.059 46.945-39.914 74.124-9.855 27.18-14.782 55.594-14.782 85.243 0 34.592 9.362 63.747 28.087 87.467S314.07 381 345.608 381z" transform="translate(145 -1269) translate(-145 1269)"/>
            </g>
        </g>
    </g>
</svg>
