<svg xmlns="http://www.w3.org/2000/svg" width="186" height="156" viewBox="0 0 186 156">
    <g fill="none" fill-rule="evenodd" opacity=".32">
        <g fill="#E6E9EA" fill-rule="nonzero">
            <path d="M322.896 276c12.889 0 22.958-3.743 30.208-11.23 7.25-7.486 10.875-16.49 10.875-27.011 0-9.712-3.524-17.907-10.573-24.584-7.048-6.677-15.205-10.015-24.469-10.015-4.43 0-7.149-.81-8.156-2.428-1.007-1.62-.705-5.261.906-10.927 2.417-10.521 7.653-19.828 15.709-27.922 8.055-8.093 17.923-14.568 29.604-19.424L356.125 120c-10.472 4.047-20.34 9.51-29.604 16.39-9.264 6.878-17.32 14.87-24.167 23.976-6.847 9.105-12.285 19.222-16.312 30.35-4.028 11.128-6.042 22.763-6.042 34.903 0 14.163 3.927 26.1 11.781 35.813 7.854 9.712 18.226 14.568 31.115 14.568zm98.396 0c12.889 0 23.059-3.743 30.51-11.23 7.451-7.486 11.177-16.49 11.177-27.011 0-9.712-3.524-17.907-10.573-24.584-7.048-6.677-15.205-10.015-24.469-10.015-4.833 0-7.753-.81-8.76-2.428-1.007-1.62-.705-5.261.906-10.927 2.82-10.521 8.257-19.828 16.313-27.922 8.055-8.093 17.923-14.568 29.604-19.424L455.125 120c-10.472 4.047-20.34 9.51-29.604 16.39-9.264 6.878-17.32 14.87-24.167 23.976-6.847 9.105-12.285 19.222-16.312 30.35-4.028 11.128-6.042 22.763-6.042 34.903 0 14.163 3.826 26.1 11.48 35.813 7.652 9.712 17.923 14.568 30.812 14.568z" transform="translate(-280 -120)"/>
        </g>
    </g>
</svg>
