<svg xmlns="http://www.w3.org/2000/svg" width="347" height="291" viewBox="0 0 347 291">
    <g fill="none" fill-rule="evenodd">
        <g fill-rule="nonzero">
            <g>
                <path fill="#F2F4F4" d="M96.324 291c22.633 0 40.314-6.55 53.045-19.652 12.731-13.1 19.096-28.858 19.096-47.27 0-16.996-6.188-31.337-18.565-43.022-12.378-11.684-26.7-17.527-42.967-17.527-7.78 0-12.554-1.416-14.322-4.249-1.768-2.833-1.238-9.206 1.591-19.12 4.244-18.413 13.438-34.7 27.584-48.864 14.145-14.164 31.473-25.494 51.984-33.992L154.674 18c-18.39 7.082-35.717 16.642-51.985 28.68-16.267 12.04-30.412 26.026-42.436 41.96-12.023 15.934-21.571 33.638-28.644 53.113C24.536 161.228 21 181.588 21 202.833c0 24.786 6.896 45.677 20.688 62.673C55.479 282.502 73.69 291 96.324 291zm172.17 0c22.632 0 40.49-6.55 53.575-19.652 13.084-13.1 19.626-28.858 19.626-47.27 0-16.996-6.188-31.337-18.565-43.022-12.377-11.684-26.7-17.527-42.967-17.527-8.487 0-13.615-1.416-15.383-4.249-1.768-2.833-1.238-9.206 1.591-19.12 4.951-18.413 14.5-34.7 28.645-48.864C309.16 77.132 326.489 65.802 347 57.304L327.904 18c-18.39 7.082-35.717 16.642-51.984 28.68-16.268 12.04-30.413 26.026-42.437 41.96-12.023 15.934-21.571 33.638-28.644 53.113-7.073 19.475-10.609 39.835-10.609 61.08 0 24.786 6.72 45.677 20.157 62.673C227.825 282.502 245.861 291 268.493 291z" opacity=".6" transform="translate(-1491 -398) translate(1491 398) rotate(180 184 154.5)"/>
                <path stroke="#D4D9DB" stroke-width="1.2" d="M250.676 0c-22.633 0-40.314 6.55-53.045 19.652-12.731 13.1-19.096 28.858-19.096 47.27 0 16.996 6.188 31.337 18.565 43.022 12.378 11.684 26.7 17.527 42.967 17.527 7.78 0 12.554 1.416 14.322 4.249 1.768 2.833 1.238 9.206-1.591 19.12-4.244 18.413-13.438 34.7-27.584 48.864-14.145 14.164-31.473 25.494-51.984 33.992h0L192.326 273c18.39-7.082 35.717-16.642 51.985-28.68 16.267-12.04 30.412-26.026 42.436-41.96 12.023-15.934 21.571-33.638 28.644-53.113C322.464 129.772 326 109.412 326 88.167c0-24.786-6.896-45.677-20.688-62.673C291.521 8.498 273.31 0 250.676 0zM78.506 0c-22.632 0-40.49 6.55-53.575 19.652-13.084 13.1-19.626 28.858-19.626 47.27 0 16.996 6.188 31.337 18.565 43.022 12.377 11.684 26.7 17.527 42.967 17.527 8.487 0 13.615 1.416 15.383 4.249 1.768 2.833 1.238 9.206-1.591 19.12-4.951 18.413-14.5 34.7-28.645 48.864C37.84 213.868 20.511 225.198 0 233.696h0L19.096 273c18.39-7.082 35.717-16.642 51.984-28.68 16.268-12.04 30.413-26.026 42.437-41.96 12.023-15.934 21.571-33.638 28.644-53.113 7.073-19.475 10.609-39.835 10.609-61.08 0-24.786-6.72-45.677-20.157-62.673C119.175 8.498 101.139 0 78.507 0z" opacity=".5" transform="translate(-1491 -398) translate(1491 398)"/>
            </g>
        </g>
    </g>
</svg>
