<svg xmlns="http://www.w3.org/2000/svg" width="397" height="333" viewBox="0 0 397 333">
    <g fill="none" fill-rule="evenodd">
        <g fill-rule="nonzero">
            <g>
                <path fill="#F2F4F4" d="M109.953 332c25.826 0 46.002-7.462 60.53-22.387 14.527-14.925 21.79-32.875 21.79-53.85 0-19.362-7.061-35.699-21.185-49.01-14.124-13.311-30.467-19.967-49.03-19.967-8.877 0-14.325-1.613-16.343-4.84-2.017-3.227-1.412-10.488 1.816-21.783 4.843-20.975 15.335-39.53 31.476-55.665 16.141-16.135 35.914-29.043 59.32-38.724L176.535 21c-20.984 8.067-40.757 18.958-59.32 32.673-18.562 13.715-34.704 29.648-48.424 47.8-13.72 18.152-24.615 38.32-32.686 60.506C28.036 184.164 24 207.358 24 231.56c0 28.236 7.869 52.035 23.607 71.397C63.344 322.32 84.127 332 109.953 332zm196.463 0c25.826 0 46.204-7.462 61.135-22.387 14.93-14.925 22.396-32.875 22.396-53.85 0-19.362-7.062-35.699-21.185-49.01-14.124-13.311-30.467-19.967-49.03-19.967-9.685 0-15.536-1.613-17.553-4.84-2.018-3.227-1.413-10.488 1.815-21.783 5.65-20.975 16.545-39.53 32.687-55.665C352.82 88.363 372.595 75.455 396 65.774L374.21 21c-20.985 8.067-40.758 18.958-59.32 32.673-18.563 13.715-34.704 29.648-48.424 47.8-13.72 18.152-24.616 38.32-32.686 60.506-8.071 22.185-12.106 45.379-12.106 69.581 0 28.236 7.667 52.035 23.001 71.397C260.009 322.32 280.589 332 306.415 332z" opacity=".6" transform="translate(-1579 -948) translate(1580 949) rotate(180 210 176.5)"/>
                <path stroke="#D4D9DB" stroke-width="1.2" d="M286.047 0c-25.826 0-46.002 7.462-60.53 22.387-14.527 14.925-21.79 32.875-21.79 53.85 0 19.362 7.061 35.699 21.185 49.01 14.124 13.311 30.467 19.967 49.03 19.967 8.877 0 14.325 1.613 16.343 4.84 2.017 3.227 1.412 10.488-1.816 21.783-4.843 20.975-15.335 39.53-31.476 55.665-16.141 16.135-35.914 29.043-59.32 38.724h0L219.465 311c20.984-8.067 40.757-18.958 59.32-32.673 18.562-13.715 34.704-29.648 48.424-47.8 13.72-18.152 24.615-38.32 32.686-60.506C367.964 147.836 372 124.642 372 100.44c0-28.236-7.869-52.035-23.607-71.397C332.656 9.68 311.873 0 286.047 0zM89.584 0C63.758 0 43.38 7.462 28.45 22.387 13.52 37.312 6.053 55.262 6.053 76.237c0 19.362 7.062 35.699 21.185 49.01 14.124 13.311 30.467 19.967 49.03 19.967 9.685 0 15.536 1.613 17.553 4.84 2.018 3.227 1.413 10.488-1.815 21.783-5.65 20.975-16.545 39.53-32.687 55.665C43.18 243.637 23.405 256.545 0 266.226h0L21.79 311c20.985-8.067 40.758-18.958 59.32-32.673 18.563-13.715 34.704-29.648 48.424-47.8 13.72-18.152 24.616-38.32 32.686-60.506 8.071-22.185 12.106-45.379 12.106-69.581 0-28.236-7.667-52.035-23.001-71.397C135.991 9.68 115.411 0 89.585 0z" opacity=".5" transform="translate(-1579 -948) translate(1580 949)"/>
            </g>
        </g>
    </g>
</svg>
