<svg xmlns="http://www.w3.org/2000/svg" xmlns:xlink="http://www.w3.org/1999/xlink" width="229" height="48" viewBox="0 0 229 48">
    <defs>
        <path id="92j66ztmba" d="M0 0H60V48H0z"/>
    </defs>
    <g fill="none" fill-rule="evenodd">
        <g>
            <g>
                <path fill="#A58FFF" fill-rule="nonzero" d="M32 45L32 38.501 9.948 24.12 32 9.499 32 3 0 24.12z" transform="translate(-769.000000, -161.000000) translate(769.000000, 161.000000)"/>
                <path fill="#A58FFF" fill-rule="nonzero" d="M229 45L229 38.501 206.948 24.12 229 9.499 229 3 197 24.12z" transform="translate(-769.000000, -161.000000) translate(769.000000, 161.000000) translate(213.000000, 24.000000) scale(-1, 1) translate(-213.000000, -24.000000)"/>
                <path fill="#A58FFF" fill-rule="nonzero" d="M59.53 45.082v-33.74h11.457V6.221H42v5.121h11.405v33.74h6.125zm25.288.686c3.801 0 7.128-1.267 9.82-3.062l-2.112-3.855c-2.112 1.373-4.33 2.165-6.916 2.165-5.016 0-8.501-3.326-8.976-8.87h18.85c.158-.687.263-1.901.263-3.063 0-8.237-4.118-13.78-11.827-13.78-6.811 0-13.253 5.86-13.253 15.311 0 9.557 6.283 15.154 14.15 15.154zm5.702-17.794H76.58c.582-5.121 3.802-7.92 7.446-7.92 4.224 0 6.494 2.904 6.494 7.92zm23.546 17.794c3.326 0 6.758-1.214 9.398-3.59l-2.482-4.013c-1.742 1.478-3.907 2.64-6.336 2.64-4.857 0-8.184-4.066-8.184-10.19 0-6.178 3.485-10.297 8.343-10.297 2.006 0 3.643.845 5.227 2.27l3.01-3.96c-2.112-1.847-4.805-3.326-8.501-3.326-7.656 0-14.362 5.597-14.362 15.312 0 9.61 6.02 15.154 13.887 15.154zm21.17-.686V24.49c2.586-2.588 4.434-3.96 7.127-3.96 3.432 0 4.91 2.006 4.91 7.022v17.53h6.073v-18.27c0-7.391-2.746-11.51-8.924-11.51-3.96 0-6.864 2.165-9.398 4.594l.211-5.755V3h-6.019v42.082h6.02z" transform="translate(-769.000000, -161.000000) translate(769.000000, 161.000000)"/>
                <g transform="translate(-769.000000, -161.000000) translate(769.000000, 161.000000) translate(148.000000, 0.000000)">
                    <mask id="ngr3bhnzib" fill="#fff">
                        <use xlink:href="#92j66ztmba"/>
                    </mask>
                    <path fill="#A58FFF" fill-rule="nonzero" d="M16.612 54.022L47.53 -7 41.037 -7 10 54.022z" mask="url(#ngr3bhnzib)"/>
                </g>
            </g>
        </g>
    </g>
</svg>
